Coordinates
version=1
nRows=37
nColumns=38
inDegrees=no

Units are S.I. units (second, meters, Newtons, ...)
If the header above contains a line with 'inDegrees', this indicates whether rotational values are in degrees (yes) or radians (no).

endheader
time	pelvis_tilt	pelvis_list	pelvis_rotation	pelvis_tx	pelvis_ty	pelvis_tz	hip_flexion_r	hip_adduction_r	hip_rotation_r	knee_angle_r	ankle_angle_r	subtalar_angle_r	mtp_angle_r	hip_flexion_l	hip_adduction_l	hip_rotation_l	knee_angle_l	ankle_angle_l	subtalar_angle_l	mtp_angle_l	lumbar_extension	lumbar_bending	lumbar_rotation	arm_flex_r	arm_add_r	arm_rot_r	elbow_flex_r	pro_sup_r	wrist_flex_r	wrist_dev_r	arm_flex_l	arm_add_l	arm_rot_l	elbow_flex_l	pro_sup_l	wrist_flex_l	wrist_dev_l
0.65	-0.058786	1.50582	-1.54406	0.852679	1.17521	0.953675	0.518388	-0.0577554	0.0495129	0.851258	-0.0494749	0	0	-0.153601	0.0620805	-0.203835	0.135662	0.14758	0	0	-0.153752	-0.0290354	-0.18512	-0.2531	-0.0477701	-0.530092	0.432219	1.15516	0	0	-0.0486435	-0.425652	0.523149	0.659548	0.663166	0	0
0.66	-0.0987494	1.50778	-1.50145	0.853154	1.16748	0.952704	0.520301	-0.0573294	0.036918	0.806792	-0.0450366	0	0	-0.161338	0.0601694	-0.202445	0.134236	0.153951	0	0	-0.15426	-0.0251554	-0.185284	-0.248504	-0.0466199	-0.52527	0.434483	1.14876	0	0	-0.037015	-0.424536	0.526853	0.660152	0.665449	0	0
0.67	-0.153323	1.50689	-1.44406	0.853849	1.15963	0.951999	0.517033	-0.0563737	0.0199848	0.75984	-0.0412408	0	0	-0.175361	0.0577325	-0.194941	0.126226	0.156861	0	0	-0.157741	-0.0197511	-0.185107	-0.24233	-0.0447871	-0.531772	0.434713	1.1619	0	0	-0.0249951	-0.42064	0.524812	0.657089	0.6834	0	0
0.68	-0.210024	1.50749	-1.38424	0.854283	1.15163	0.951006	0.515622	-0.0550969	0.0018806	0.714001	-0.0379762	0	0	-0.183683	0.0541769	-0.193357	0.126112	0.163837	0	0	-0.159128	-0.0148466	-0.185666	-0.237772	-0.0436948	-0.528862	0.43641	1.15956	0	0	-0.0143833	-0.418428	0.525298	0.657285	0.686781	0	0
0.69	-0.271692	1.50801	-1.31954	0.854598	1.14351	0.94991	0.513709	-0.0529729	-0.0175183	0.668411	-0.0343995	0	0	-0.191141	0.049999	-0.193054	0.127728	0.171856	0	0	-0.160167	-0.00990751	-0.186275	-0.23365	-0.0427704	-0.52624	0.437942	1.15789	0	0	-0.00515109	-0.416572	0.525327	0.659391	0.690235	0	0
0.7	-0.315988	1.50956	-1.2666	0.854273	1.13495	0.948638	0.510954	-0.0439375	-0.0306546	0.625797	-0.0363736	0	0	-0.198575	0.0410615	-0.200532	0.127575	0.183765	0	0	-0.15954	-0.00801136	-0.189247	-0.232013	-0.0399434	-0.524383	0.438729	1.15612	0	0	0.0039816	-0.416239	0.525292	0.6626	0.693344	0	0
0.71	-0.383903	1.51071	-1.19781	0.854287	1.12655	0.947307	0.509871	-0.0412526	-0.0499269	0.581823	-0.030774	0	0	-0.204459	0.0368601	-0.202306	0.130737	0.192113	0	0	-0.158762	-0.00395192	-0.187695	-0.22818	-0.0387923	-0.52868	0.438545	1.16468	0	0	0.011802	-0.415957	0.530701	0.667941	0.683394	0	0
0.72	-0.466444	1.51068	-1.11419	0.854205	1.11792	0.945998	0.506607	-0.0370248	-0.0713516	0.53687	-0.0248615	0	0	-0.210652	0.0311371	-0.204619	0.134994	0.201525	0	0	-0.158218	0.00118455	-0.186815	-0.225514	-0.0387143	-0.527073	0.439457	1.1627	0	0	0.0183256	-0.413975	0.529792	0.671203	0.688271	0	0
0.73	-0.553667	1.51063	-1.02636	0.853962	1.10913	0.944581	0.503218	-0.0316824	-0.0933751	0.492475	-0.0186282	0	0	-0.21585	0.0251102	-0.20813	0.140585	0.211597	0	0	-0.156919	0.00619235	-0.18576	-0.223451	-0.0387977	-0.525887	0.440492	1.16037	0	0	0.02392	-0.412006	0.52829	0.674072	0.693879	0	0
0.74	-0.659986	1.50916	-0.918847	0.853621	1.10023	0.943134	0.49773	-0.0237644	-0.115497	0.446106	-0.0135557	0	0	-0.2189	0.0161615	-0.216163	0.151364	0.224856	0	0	-0.155497	0.0127889	-0.18653	-0.226318	-0.0430426	-0.488922	0.448571	1.09528	0	0	0.027334	-0.407666	0.516115	0.673854	0.725082	0	0
0.75	-0.754284	1.51007	-0.823431	0.853151	1.09126	0.941418	0.495419	-0.0173816	-0.134414	0.403583	-0.00683575	0	0	-0.221442	0.0105005	-0.217988	0.15817	0.234406	0	0	-0.151799	0.0163559	-0.186299	-0.224214	-0.0425289	-0.492906	0.447048	1.10331	0	0	0.0320143	-0.406968	0.518213	0.676962	0.726384	0	0
0.76	-0.85663	1.50958	-0.719757	0.852548	1.08214	0.939727	0.490858	-0.00877453	-0.151382	0.35926	-0.0014458	0	0	-0.223466	0.00311525	-0.221896	0.167404	0.245501	0	0	-0.148319	0.0206286	-0.186317	-0.222476	-0.042376	-0.495651	0.445141	1.10983	0	0	0.0358923	-0.406274	0.51906	0.68105	0.728014	0	0
0.77	-0.959696	1.50869	-0.615438	0.851817	1.07285	0.938	0.485692	0.000960421	-0.16476	0.315266	0.00342017	0	0	-0.224657	-0.00464593	-0.227134	0.178138	0.256715	0	0	-0.144366	0.0246443	-0.186381	-0.221136	-0.0422714	-0.497721	0.442684	1.11485	0	0	0.0390509	-0.405747	0.519646	0.684586	0.730106	0	0
0.78	-1.06152	1.50731	-0.512369	0.850995	1.06338	0.936247	0.479918	0.0116185	-0.173731	0.272076	0.00740542	0	0	-0.225017	-0.0127897	-0.23346	0.190485	0.267926	0	0	-0.140017	0.0284872	-0.186432	-0.220048	-0.0422916	-0.49925	0.439529	1.11893	0	0	0.041878	-0.40539	0.521148	0.687083	0.732865	0	0
0.79	-1.15343	1.50549	-0.419121	0.850111	1.05375	0.934512	0.473132	0.022582	-0.178115	0.230206	0.0101303	0	0	-0.225191	-0.0210962	-0.240444	0.204209	0.278746	0	0	-0.13555	0.0318861	-0.186871	-0.219282	-0.0425414	-0.499988	0.436148	1.1226	0	0	0.0444332	-0.40531	0.524159	0.68886	0.736691	0	0
0.8	-1.22972	1.50349	-0.341245	0.849211	1.04398	0.932836	0.465551	0.0330355	-0.179308	0.191119	0.0109304	0	0	-0.225262	-0.0292417	-0.247858	0.219589	0.288892	0	0	-0.131479	0.0347044	-0.187571	-0.219445	-0.0429398	-0.49927	0.43417	1.12594	0	0	0.0469824	-0.405126	0.527725	0.689272	0.740533	0	0
0.81	-1.28855	1.50169	-0.280453	0.848325	1.03406	0.931256	0.458314	0.0421511	-0.180575	0.158106	0.0106263	0	0	-0.225542	-0.0370643	-0.255193	0.236402	0.298322	0	0	-0.128077	0.0367058	-0.188336	-0.22056	-0.0432911	-0.49759	0.433515	1.12862	0	0	0.0497638	-0.404878	0.531863	0.688488	0.744102	0	0
0.82	-1.33454	1.50022	-0.232387	0.847404	1.02392	0.92979	0.452905	0.0497358	-0.183938	0.134671	0.0109859	0	0	-0.22606	-0.0447294	-0.262773	0.254394	0.306687	0	0	-0.124951	0.0379332	-0.18934	-0.222327	-0.043676	-0.495306	0.433566	1.13013	0	0	0.052267	-0.404706	0.536642	0.687039	0.748021	0	0
0.83	-1.38597	1.49798	-0.177989	0.846457	1.01362	0.92831	0.451051	0.0567444	-0.190873	0.122624	0.0125935	0	0	-0.22237	-0.0556994	-0.276101	0.281145	0.318044	0	0	-0.120987	0.0399985	-0.191637	-0.227252	-0.0461491	-0.474603	0.438434	1.10211	0	0	0.0536276	-0.403996	0.539184	0.684056	0.761584	0	0
0.84	-1.40791	1.49791	-0.154579	0.845501	1.00303	0.927121	0.451847	0.0600479	-0.198538	0.125169	0.017851	0	0	-0.225583	-0.0607067	-0.278287	0.296229	0.320432	0	0	-0.118522	0.0393454	-0.192303	-0.229287	-0.0464969	-0.475236	0.437871	1.10715	0	0	0.0543955	-0.403593	0.543022	0.681724	0.762337	0	0
0.85	-1.42722	1.49727	-0.133749	0.844529	0.992221	0.926074	0.454371	0.0631646	-0.204995	0.136768	0.0220329	0	0	-0.22766	-0.0671653	-0.281102	0.314843	0.322037	0	0	-0.115915	0.0394211	-0.192701	-0.232511	-0.0472064	-0.474786	0.437875	1.11097	0	0	0.0548367	-0.402873	0.54751	0.678591	0.762892	0	0
0.86	-1.44528	1.4962	-0.113858	0.843605	0.98117	0.925175	0.457683	0.0661537	-0.208932	0.15473	0.0239014	0	0	-0.228934	-0.0745237	-0.282829	0.335544	0.322036	0	0	-0.11303	0.0402916	-0.193324	-0.236773	-0.0482217	-0.474319	0.438888	1.11218	0	0	0.0544399	-0.401356	0.551114	0.674612	0.763038	0	0
0.87	-1.46502	1.49478	-0.0921144	0.842664	0.969807	0.924396	0.460688	0.069592	-0.209477	0.17597	0.023873	0	0	-0.229402	-0.0826541	-0.28359	0.357836	0.320908	0	0	-0.109379	0.0418191	-0.194102	-0.242458	-0.0493496	-0.473859	0.441661	1.11092	0	0	0.0526116	-0.399224	0.553343	0.670281	0.762599	0	0
0.88	-1.48528	1.49284	-0.068863	0.841782	0.958149	0.923738	0.462274	0.0735554	-0.206992	0.198124	0.023662	0	0	-0.228679	-0.0918315	-0.282878	0.382028	0.318381	0	0	-0.105048	0.0442137	-0.195972	-0.249126	-0.0507116	-0.473991	0.445226	1.10884	0	0	0.0490654	-0.396818	0.554016	0.666395	0.761467	0	0
0.89	-1.51126	1.49064	-0.0387666	0.840968	0.946219	0.923149	0.462058	0.0780813	-0.20132	0.218253	0.0253332	0	0	-0.225929	-0.101948	-0.280343	0.408784	0.314181	0	0	-0.0993781	0.0471499	-0.199308	-0.256734	-0.0522829	-0.474784	0.448757	1.10676	0	0	0.0436694	-0.393961	0.552729	0.662512	0.759672	0	0
0.9	-1.54664	1.48819	0.00138783	0.840153	0.933991	0.922559	0.460007	0.0833166	-0.192856	0.234049	0.030563	0	0	-0.220695	-0.112999	-0.277323	0.438235	0.308226	0	0	-0.091844	0.0504125	-0.202979	-0.266079	-0.0540172	-0.476551	0.452873	1.10442	0	0	0.0370053	-0.390571	0.550263	0.658462	0.75823	0	0
0.91	-1.58943	1.4852	0.0496499	0.839327	0.92153	0.921967	0.456328	0.089212	-0.184053	0.244289	0.0361409	0	0	-0.212722	-0.1253	-0.273935	0.470662	0.299709	0	0	-0.0826847	0.0542265	-0.206839	-0.276477	-0.0557917	-0.479942	0.456526	1.10188	0	0	0.02925	-0.387103	0.547349	0.654409	0.757301	0	0
0.92	-1.6461	1.48031	0.112551	0.838459	0.908972	0.921279	0.452622	0.0966007	-0.176372	0.248413	0.0340588	0	0	-0.199246	-0.141336	-0.272374	0.509987	0.289352	0	0	-0.070948	0.0598387	-0.211908	-0.292474	-0.0609444	-0.456921	0.468638	1.04753	0	0	0.0195756	-0.382885	0.540652	0.649766	0.759556	0	0
0.93	-1.67891	1.4758	0.149567	0.837379	0.896381	0.920969	0.44684	0.103574	-0.169026	0.249827	0.0189543	0	0	-0.188207	-0.155537	-0.2683	0.546587	0.273198	0	0	-0.0617487	0.0649324	-0.21386	-0.302334	-0.0627668	-0.465102	0.469763	1.05312	0	0	0.0108873	-0.379313	0.536318	0.646409	0.758075	0	0
0.94	-1.71191	1.46882	0.185486	0.836043	0.883983	0.920829	0.444231	0.111707	-0.165554	0.254285	-0.0060979	0	0	-0.172102	-0.173856	-0.267149	0.590386	0.253852	0	0	-0.0524309	0.0725499	-0.213902	-0.312086	-0.0649159	-0.472926	0.471279	1.05749	0	0	0.00324096	-0.375001	0.532151	0.642146	0.756469	0	0
0.95	-1.7346	1.4604	0.208662	0.834555	0.871857	0.921027	0.445233	0.120048	-0.165901	0.267509	-0.0270511	0	0	-0.153101	-0.193835	-0.267053	0.63876	0.22851	0	0	-0.0449357	0.0822537	-0.210881	-0.320666	-0.0676639	-0.480712	0.471805	1.06083	0	0	-0.0029778	-0.369885	0.528338	0.636954	0.754691	0	0
0.96	-1.75602	1.4517	0.228604	0.833092	0.859949	0.921403	0.450742	0.127066	-0.170951	0.291403	-0.0339682	0	0	-0.129987	-0.213696	-0.266363	0.691769	0.195654	0	0	-0.0380728	0.0928167	-0.205721	-0.328269	-0.0706053	-0.49186	0.47119	1.06611	0	0	-0.00834001	-0.363897	0.52476	0.630928	0.751639	0	0
0.97	-1.76947	1.44498	0.239527	0.831834	0.848186	0.921947	0.45699	0.130846	-0.179871	0.321551	-0.0302335	0	0	-0.105237	-0.229741	-0.261266	0.74611	0.155589	0	0	-0.0330665	0.102061	-0.199388	-0.33696	-0.0738394	-0.500782	0.473339	1.06451	0	0	-0.012846	-0.36014	0.53031	0.628462	0.727059	0	0
0.98	-1.76406	1.44008	0.231112	0.830765	0.836504	0.922723	0.457993	0.133364	-0.188344	0.348193	-0.0266878	0	0	-0.0815425	-0.242431	-0.251331	0.800391	0.112122	0	0	-0.0317284	0.110364	-0.193351	-0.344926	-0.077771	-0.504958	0.475638	1.05798	0	0	-0.0190419	-0.356716	0.529555	0.628746	0.720014	0	0
0.99	-1.75595	1.43542	0.219811	0.829719	0.82502	0.923437	0.45512	0.136841	-0.194559	0.367833	-0.0272446	0	0	-0.0554808	-0.254097	-0.238266	0.856878	0.0673691	0	0	-0.0313844	0.118567	-0.187624	-0.352855	-0.0816117	-0.508391	0.479322	1.05127	0	0	-0.0258746	-0.354248	0.527885	0.631344	0.714441	0	0
1	-1.75052	1.43001	0.211764	0.828568	0.813853	0.923978	0.449358	0.142523	-0.198888	0.379785	-0.0299352	0	0	-0.0256755	-0.266287	-0.22264	0.915606	0.0220655	0	0	-0.0311752	0.127242	-0.182735	-0.35829	-0.0837801	-0.522942	0.480384	1.06684	0	0	-0.0323751	-0.351714	0.522792	0.632884	0.72081	0	0
1.01	-1.74904	1.42368	0.207907	0.827331	0.803083	0.924292	0.44165	0.150706	-0.201464	0.385391	-0.0314903	0	0	0.00767207	-0.279059	-0.205333	0.975985	-0.0226859	0	0	-0.0306492	0.13641	-0.178507	-0.368658	-0.0884201	-0.510509	0.491901	1.03214	0	0	-0.0379072	-0.351948	0.526215	0.636948	0.708927	0	0
